# xmcd
#
# Track frame offsets: 
#        150
#        24915
#        50690
#        65912
#        83918
#        102631
#        121186
#        144305
#        159077
#        172413
#        187629
#        200214
#        215960
#        231415
#        244972
#        259508
#        276073
#        293898
#        313935
#        328688
#
# Disc length: 4592 seconds
#
# Revision: 0
# Processed by: cddbd v1.5.2PL0 Copyright (c) Steve Scherf et al.
# Submitted via: ExactAudioCopy v0.99pb4
#
DISCID=3911ee14
DTITLE=Various Artist - Alle 40 Goed Fout - CD 2
DYEAR=2015
DGENRE=Pop
TTITLE0=Meat Loaf - Paradise By The Dashboard Light
TTITLE1=Michel Sardou - Les Lacs Du Connemara
TTITLE2=Barry White - You're The First, The Last, My Everything
TTITLE3=André Hazes - Zij Gelooft In Mij
TTITLE4=Bart Kaëll - Zeil Je Voor Het Eerst
TTITLE5=Captain Jack - Captain Jack
TTITLE6=Europe - The Final Countdown
TTITLE7=Gebroeders Ko - Boten Anna
TTITLE8=De Romeo's - Viva De Romeo's
TTITLE9=Michel Delpech - Pour Un Flirt
TTITLE10=Bellini - Samba De Janeiro
TTITLE11=Tavares - Heaven Must Be Missing An Angel
TTITLE12=Isabelle A - Hé, Lekker Beest
TTITLE13=The Lynn Sisters - Soldiers Of Love
TTITLE14=The Blues Brothers Vocals Aretha Franklin - Think
TTITLE15=2 Unlimited - Jump For Joy
TTITLE16=Hot Chocolate - You Sexy Thing
TTITLE17=Kiss - I Was Made For Lovin' You
TTITLE18=Frans Bauer - Heb Je Even Voor Mij
TTITLE19=Willy Sommers - Laat De Zon In Je Hart
EXTD=
EXTT0=
EXTT1=
EXTT2=
EXTT3=
EXTT4=
EXTT5=
EXTT6=
EXTT7=
EXTT8=
EXTT9=
EXTT10=
EXTT11=
EXTT12=
EXTT13=
EXTT14=
EXTT15=
EXTT16=
EXTT17=
EXTT18=
EXTT19=
PLAYORDER=
